<svg width="31" height="31" viewBox="0 0 31 31" fill="none" xmlns="http://www.w3.org/2000/svg">
<path fill-rule="evenodd" clip-rule="evenodd" d="M31 0H0V31H31V0ZM17 5L18.7076 2.53342C17.7902 1.89828 16.5961 1.8248 15.6077 2.34266C14.6193 2.86053 14 3.88417 14 5V14.0709C13.6734 14.0242 13.3395 14 13 14C9.13401 14 6 17.134 6 21C6 24.866 9.13401 28 13 28C16.3511 28 19.1522 25.6452 19.8389 22.5H20V21V10.7167C21.071 11.454 22.1015 12.161 22.7948 12.6314C23.3261 13.1092 24.0291 13.4 24.8 13.4C26.4568 13.4 27.8 12.0568 27.8 10.4C27.8 9.43851 27.3477 8.58267 26.6442 8.03365L26.6641 8.00385C25.9388 7.52031 23.963 6.16212 22.1407 4.90536C21.2357 4.28122 20.3773 3.68816 19.7451 3.25108L18.9892 2.72826L18.7807 2.58398L18.7262 2.54625L18.7123 2.53663L18.7088 2.53422L18.7079 2.53362L18.7077 2.53347L17 5Z" fill="white"/>
</svg>
