<svg width="31" height="31" viewBox="0 0 31 31" fill="none" xmlns="http://www.w3.org/2000/svg">
<path fill-rule="evenodd" clip-rule="evenodd" d="M0 0H31V20H13.0226V23H31V24H13.0226V27H31V31H0V0ZM1.0376 24.5C0.952994 24.8812 1.0376 25.5 1.0376 25.5L1.19593 26L1.53698 26.5C1.53698 26.5 1.81865 26.8305 2.03635 27C2.38057 27.2681 2.62245 27.3588 3.0351 27.5C3.36847 27.614 3.91532 27.6978 3.91532 27.6978C4.34839 27.751 4.59628 27.7619 5.0326 27.7619C5.38063 27.7619 5.59367 27.7409 5.91134 27.7096L6.03134 27.6978C6.39118 27.6628 6.60371 27.6087 6.92909 27.5257L7.03008 27.5C7.4261 27.3997 7.64624 27.332 8.02883 27.1886C8.42833 27.039 8.67 26.9017 9.02758 26.6688C9.4891 26.3683 10.0263 25.7498 10.0263 25.7498C10.0263 25.7498 10.3472 25.3032 10.5257 25C10.7471 24.6239 11.0251 24 11.0251 24V10.6399H12.0238C12.0238 10.6399 12.6368 10.7222 13.0226 10.7797C13.5717 10.8616 14.0213 11.097 14.0213 11.097C14.0213 11.097 15.0955 11.5755 15.5194 12L16.5182 13L17.0175 14C17.0175 14 17.1094 14.611 17.1825 15C17.2199 15.1987 17.2052 15.4545 17.1911 15.6993V15.6994C17.1635 16.1814 17.1383 16.6212 17.5169 16.5C17.7796 16.4159 18.0163 16 18.0163 16C18.0163 16 18.2066 15.3987 18.2524 15C18.2969 14.612 18.2969 14.388 18.2524 14L18.2444 13.9302C18.2038 13.5753 18.1799 13.3664 18.0901 13L18.0777 12.9492C17.9891 12.5868 17.9303 12.3465 17.7622 12C17.5367 11.5353 16.8971 11 16.8971 11C16.8971 11 16.3742 10.4771 16.0188 10.1644C15.6421 9.83288 15.4187 9.66067 15.0201 9.35597C14.6377 9.06373 14.4198 8.90394 14.0213 8.63415L13.9457 8.58291C13.6089 8.35465 13.3977 8.21154 13.0226 8C12.7761 7.86103 12.5933 7.77414 12.3888 7.67695C12.278 7.6243 12.1609 7.56862 12.0238 7.5L11.0251 7V5.5H10.0263V21.5L9.02758 21.367L8.02884 21.2726C8.02884 21.2726 7.42449 21.2275 7.03008 21.1938C6.64146 21.1606 6.42014 21.1628 6.03134 21.1938C5.43611 21.2413 4.53322 21.5 4.53322 21.5C4.53322 21.5 3.80295 21.769 3.36282 22L3.34158 22.0111C3.02044 22.1797 2.83157 22.2788 2.53572 22.5C2.09378 22.8305 1.53698 23.5 1.53698 23.5C1.53698 23.5 1.1322 24.0738 1.0376 24.5ZM14.5897 15.4332C14.5673 15.455 14.5443 15.4773 14.5207 15.5C14.2723 15.7387 14.1772 15.9201 14.0214 16.2275C13.9246 16.4184 13.8803 16.5638 13.8299 16.7295C13.8048 16.8119 13.7782 16.8994 13.7428 17C13.7196 17.066 13.6974 17.1215 13.6764 17.1739C13.6355 17.2762 13.5993 17.3666 13.5697 17.5C13.4851 17.8812 13.5697 18.5 13.5697 18.5H30.8654V18C30.8654 18 30.7643 17.3859 30.6663 17C30.6414 16.9019 30.6217 16.8131 30.6031 16.7297C30.5465 16.4758 30.5009 16.2708 30.3547 16C30.1018 15.5314 29.8463 15.3297 29.4285 15C28.9349 14.6106 28.0038 14.2513 28.0038 14.2513L27.005 13.7746C27.005 13.7746 26.017 13.3257 25.4032 13C25.0495 12.8123 24.5082 12.5 24.5082 12.5C24.5082 12.5 24.2611 12.2194 24.1826 12C24.0683 11.6805 24.0945 11.4587 24.1826 11.131C24.2546 10.8632 24.3446 10.7239 24.5082 10.5C24.5841 10.3961 24.6669 10.3318 24.7481 10.2689C24.841 10.1968 24.9318 10.1264 25.0076 10C25.1283 9.7987 25.1715 9.66438 25.2041 9.43184C25.2149 9.35448 25.2074 9.29137 25.2001 9.22958C25.1916 9.15797 25.1834 9.08814 25.2041 9C25.2404 8.84478 25.3117 8.75499 25.3946 8.65042C25.4305 8.6052 25.4685 8.55722 25.5069 8.5C25.5627 8.41692 25.6177 8.35477 25.6705 8.29515C25.7462 8.20967 25.8173 8.12937 25.8793 8C25.9467 7.85913 25.9757 7.77391 26.0063 7.6207C26.037 7.46653 26.0279 7.35321 26.0177 7.22647C26.0122 7.15779 26.0063 7.08518 26.0063 7C26.0063 6.86276 26.0545 6.69849 26.1 6.54312C26.1841 6.25638 26.2593 6 26.0063 6C25.7305 6 25.5069 6.5 25.5069 6.5C25.5069 6.5 25.4948 5.57385 25.3649 5C25.3589 4.97345 25.3531 4.94758 25.3474 4.92229C25.2601 4.53477 25.2044 4.28735 25.0076 3.91958C24.7915 3.51597 24.6254 3.30127 24.281 3C24.0744 2.81931 23.9089 2.72786 23.7037 2.61448C23.6404 2.57949 23.5733 2.54242 23.5 2.5C23.3979 2.44085 23.3098 2.38405 23.2271 2.33077C23.0043 2.18711 22.8212 2.06909 22.5107 2C22.1299 1.91528 21.8808 1.91528 21.5 2C21.0757 2.09441 20.8684 2.24388 20.5166 2.49753L20.5132 2.5C20.2913 2.65999 20.1768 2.7763 19.9947 2.9613C19.9824 2.97387 19.9697 2.98676 19.9566 3C19.9433 3.01357 19.9303 3.0267 19.9177 3.03947C19.7579 3.2013 19.6562 3.30428 19.5144 3.5C19.503 3.51587 19.4916 3.53146 19.4805 3.54681C19.2436 3.87336 19.087 4.08924 19.0151 4.5C18.9697 4.75943 19.0151 5.17443 19.0151 5.17443V6.5C19.0151 6.5 18.7915 6 18.5157 6C18.2627 6 18.3379 6.25638 18.422 6.54312C18.4675 6.69849 18.5157 6.86276 18.5157 7C18.5157 7.08518 18.5101 7.15774 18.5049 7.22635C18.4952 7.35299 18.4865 7.46623 18.5157 7.6207C18.5445 7.77335 18.5695 7.85939 18.6355 8C18.7397 8.22198 19.0151 8.5 19.0151 8.5C19.0151 8.5 19.2208 8.78633 19.2688 9C19.2902 9.09559 19.2796 9.17312 19.269 9.25074C19.2585 9.32782 19.2479 9.40498 19.2688 9.5C19.302 9.65174 19.3596 9.74447 19.428 9.85448C19.4554 9.89857 19.4845 9.94544 19.5144 10L19.5224 10.0144C19.6896 10.3189 19.7876 10.4975 20.0138 10.767C20.0451 10.8042 20.0756 10.8315 20.1047 10.8576C20.1494 10.8975 20.1908 10.9345 20.2265 11C20.2869 11.1107 20.2883 11.2013 20.2899 11.3084C20.2905 11.3501 20.2912 11.3942 20.2954 11.443C20.2999 11.4966 20.3064 11.5451 20.3125 11.5908C20.331 11.7302 20.3461 11.8443 20.2954 12C20.2554 12.1226 20.1613 12.1995 20.0731 12.2716C19.989 12.3404 19.9103 12.4047 19.8889 12.5L19.7764 13C19.7552 13.0941 19.756 13.2396 19.7569 13.4085C19.7579 13.5902 19.759 13.7991 19.7331 14C19.698 14.2718 19.6503 14.4577 19.595 14.6733C19.5696 14.7723 19.5426 14.8774 19.5144 15C19.4855 15.1263 19.4644 15.2359 19.4445 15.3391C19.4028 15.5557 19.3665 15.7441 19.2743 16C19.1762 16.2726 19.0746 16.4521 18.9596 16.6557C18.9011 16.7591 18.8391 16.8688 18.7722 17C18.7374 17.0684 18.7175 17.1346 18.6987 17.1973C18.6638 17.314 18.6326 17.4182 18.5157 17.5C18.4006 17.5806 18.2967 17.5812 18.1758 17.5818C18.1261 17.5821 18.0736 17.5824 18.0163 17.5882C17.9333 17.5967 17.8558 17.6081 17.782 17.619C17.5102 17.6589 17.2873 17.6917 17.0176 17.5449C16.8302 17.4429 16.7439 17.3184 16.64 17.1684C16.6033 17.1155 16.5645 17.0594 16.5182 17C16.2391 16.6418 16.0958 16.4207 15.9242 16C15.8776 15.8858 15.8554 15.7892 15.8337 15.6946C15.8085 15.585 15.7838 15.4779 15.7226 15.3488C15.7019 15.3051 15.6889 15.2595 15.6766 15.2161C15.6489 15.118 15.6241 15.0308 15.5195 15C15.4729 14.9863 15.4392 14.9903 15.398 14.9953C15.3843 14.997 15.3697 14.9988 15.3536 15C15.0081 15.0265 14.8271 15.2025 14.5897 15.4332Z" fill="white"/>
</svg>
