<svg width="31" height="31" viewBox="0 0 31 31" fill="none" xmlns="http://www.w3.org/2000/svg">
<path d="M8.98928 28.2649C10.3724 29.146 13.0635 30.3279 12.9126 29.9153C12.7617 29.5027 12.2191 29.1929 11.8563 28.6775C11.4294 28.0709 11.1896 27.7141 10.9509 27.0271C10.717 26.3536 10.5546 25.9437 10.4982 25.2392C10.4468 24.5963 10.4982 24.1389 10.6491 23.5888C10.8435 22.88 10.9964 22.493 11.2527 21.8008C11.4641 21.23 11.8247 20.3638 11.8544 20.2927L11.8582 20.2833C11.8853 20.2158 12.1952 19.4386 12.309 18.9127C12.4463 18.2781 12.4809 17.9087 12.4599 17.2623C12.437 16.5561 11.8563 15.6119 12.1581 15.4743C12.4599 15.3368 13.3078 16.6926 13.5162 17.2623C13.6671 17.6749 13.818 18.225 13.9689 18.9127C13.9846 18.9844 14.1382 19.5791 14.2864 20.1507C14.3977 20.5797 14.963 20.6766 15.176 20.288C15.543 19.6188 15.6876 19.2146 15.9305 18.5001C16.2692 17.5039 16.5043 16.9294 16.5341 15.8869C16.5566 15.1014 16.1656 13.9298 16.0929 13.7194C16.0853 13.6973 16.0769 13.676 16.0677 13.6546C15.9796 13.4476 15.5052 12.2986 15.7796 12.1736C16.0814 12.036 16.529 12.6946 16.9868 13.1363C17.4741 13.6064 17.7734 13.9907 18.194 14.5116C18.6792 15.1126 18.8958 15.4894 19.2503 16.162C19.6056 16.8364 19.7437 17.2407 20.0047 17.9499C20.2777 18.6913 20.5008 19.0995 20.6083 19.8754C20.6969 20.5148 20.7592 21.1563 20.7592 21.8008C20.7592 22.7676 20.7583 23.0443 20.6083 24.0014C20.4574 24.9641 20.3391 25.3767 20.0047 26.2019C19.8376 26.6145 19.3296 27.4993 18.9485 28.2649C18.6788 28.8064 19.2606 29.3438 19.7829 29.0387C19.915 28.9615 20.0414 28.8859 20.1556 28.815C20.8991 28.3535 21.2591 28.0837 21.9664 27.5772C22.9172 26.8964 23.3188 26.6463 24.0789 25.7893C24.7163 25.0707 25.1049 24.4012 25.5879 23.5888C26.0415 22.8259 26.2307 22.3598 26.4933 21.5258C26.7899 20.5837 26.8604 20.0272 26.946 19.0502C27.0257 18.14 27.0099 17.6233 26.946 16.7121C26.8854 15.8479 26.8343 15.3602 26.6442 14.5116C26.4353 13.5791 26.2582 13.0641 25.8897 12.1736C25.499 11.2294 25.1904 10.7322 24.6825 9.83551C24.1863 8.95938 23.7772 8.32266 23.3245 7.63499C22.8528 6.91853 21.4977 5.30058 21.6646 6.12214C21.7224 6.40654 21.8674 6.535 21.9664 6.8098C22.1539 7.33019 22.2488 7.63767 22.2682 8.18512C22.2913 8.83819 22.2126 9.22183 21.9664 9.83551C21.9453 9.8881 21.9207 9.94273 21.8936 9.99845C21.6758 10.4463 21.0536 10.3124 20.9101 9.83551C20.6613 9.00879 20.0874 7.80663 20.0128 7.65166C20.0073 7.64032 20.0021 7.63006 19.9961 7.61897C19.9031 7.44606 19.0718 5.91433 18.3449 5.02188C17.4069 3.87021 15.5498 2.44121 15.3453 2.28522C15.3325 2.27541 15.3212 2.26643 15.3087 2.2561C15.119 2.09891 13.5073 0.774589 13.3653 1.03343C13.2144 1.3085 13.3653 1.17096 13.3653 2.27122C13.3653 3.37149 13.3653 4.05915 13.0635 5.15941C12.7617 6.25967 12.5717 6.6494 12.1581 7.63499C11.7835 8.52756 10.9598 9.82153 10.951 9.8354L10.9505 9.83616L9.76219 11.707C9.56953 12.0103 9.1127 11.9609 8.98928 11.6234L8.40836 10.1674C8.39326 10.1295 8.37624 10.0933 8.35607 10.0579C8.21092 9.80332 7.56047 8.70302 7.02762 8.46019C6.42404 8.18512 6.94571 9.42292 7.02762 10.1106C7.10601 10.7687 6.75794 11.8047 6.72789 11.8925L6.72383 11.9045C6.69212 11.9994 6.28986 13.1997 5.97135 13.9615C5.51112 15.0622 5.00582 15.5898 4.61328 16.7121L4.59715 16.7583C4.25935 17.7238 4.05793 18.2996 4.00969 19.3253C3.96399 20.2971 4.08244 20.8508 4.31149 21.8008C4.68021 23.3302 5.01664 24.2124 5.97135 25.5142C6.89756 26.7772 7.62313 27.3946 8.98928 28.2649Z" fill="white" stroke="white" stroke-linejoin="round"/>
</svg>
